<?xml version="1.0" standalone="no"?><!DOCTYPE svg PUBLIC "-//W3C//DTD SVG 1.1//EN" "http://www.w3.org/Graphics/SVG/1.1/DTD/svg11.dtd"><svg t="1765268853660" class="icon" viewBox="0 0 1024 1024" version="1.1" xmlns="http://www.w3.org/2000/svg" p-id="9701" xmlns:xlink="http://www.w3.org/1999/xlink" width="256" height="256"><path d="M891.72 962H132.28C93.47 962 62 930.53 62 891.72V132.28C62 93.47 93.47 62 132.28 62h210.65c30.24 0 59.84 8.76 85.22 25.22l115.08 74.64a142.035 142.035 0 0 0 77.3 22.87h271.19c38.81 0 70.28 31.47 70.28 70.28v636.71c0 38.81-31.47 70.28-70.28 70.28z" fill="#1AADF9" p-id="9702"></path><path d="M650.46 493.01c-2.11 0-4.09 0.46-6.15 0.62-9.76-65.74-65.91-116.34-134.37-116.34-68.32 0-124.39 50.39-134.33 115.93-0.7-0.02-1.36-0.21-2.06-0.21-43.37 0-78.53 35.16-78.53 78.53 0 42.67 34.06 77.19 76.46 78.32v0.2H648.39v-0.2c0.7 0.02 1.36 0.2 2.07 0.2 43.37 0 78.53-35.16 78.53-78.53-0.01-43.36-35.16-78.52-78.53-78.52z" fill="#0C2E97" p-id="9703"></path></svg>