<?xml version="1.0" standalone="no"?><!DOCTYPE svg PUBLIC "-//W3C//DTD SVG 1.1//EN" "http://www.w3.org/Graphics/SVG/1.1/DTD/svg11.dtd"><svg t="1765529806117" class="icon" viewBox="0 0 1024 1024" version="1.1" xmlns="http://www.w3.org/2000/svg" p-id="17148" xmlns:xlink="http://www.w3.org/1999/xlink" width="256" height="256"><path d="M657.261714 9.142857v201.142857c0 58.514286 36.425143 98.108952 91.623619 100.449524l5.241905 0.121905h193.682286V914.285714c0 58.514286-36.425143 98.108952-91.623619 100.449524l-5.217524 0.121905H173.031619c-56.32 0-94.47619-47.299048-96.743619-96.012191L76.190476 914.285714v-804.571428C76.190476 51.2 112.615619 11.605333 167.814095 9.264762l5.217524-0.121905h484.230095zM376.880762 512H243.809524v201.142857h31.963428v-89.014857h95.378286v-28.184381H275.748571v-55.783619h101.10781V512z m57.929143 0h-31.963429v201.142857h31.939048V512z m69.948952 0h-31.695238v201.142857h137.167238v-28.16h-105.472V512z m270.774857 0h-140.702476v201.142857H780.190476v-28.16h-113.395809v-60.854857h102.180571v-28.184381H666.819048v-55.783619h108.739047V512zM736.134095 18.115048l193.706667 201.142857h-193.706667V18.115048z" fill="#6672FB" opacity=".8" p-id="17149"></path></svg>