<?xml version="1.0" standalone="no"?><!DOCTYPE svg PUBLIC "-//W3C//DTD SVG 1.1//EN" "http://www.w3.org/Graphics/SVG/1.1/DTD/svg11.dtd"><svg t="1765529838252" class="icon" viewBox="0 0 1024 1024" version="1.1" xmlns="http://www.w3.org/2000/svg" p-id="17298" xmlns:xlink="http://www.w3.org/1999/xlink" width="256" height="256"><path d="M122.96192 354.9184m40.96 0l701.80864 0q40.96 0 40.96 40.96l0 488.0384q0 40.96-40.96 40.96l-701.80864 0q-40.96 0-40.96-40.96l0-488.0384q0-40.96 40.96-40.96Z" fill="#FFC608" p-id="17299"></path><path d="M390.5536 626.36032m24.576 0l199.39328 0q24.576 0 24.576 24.576l0 0q0 24.576-24.576 24.576l-199.39328 0q-24.576 0-24.576-24.576l0 0q0-24.576 24.576-24.576Z" fill="#FFFFFF" p-id="17300"></path><path d="M539.40224 526.66368m0 24.576l0 199.39328q0 24.576-24.576 24.576l0 0q-24.576 0-24.576-24.576l0-199.39328q0-24.576 24.576-24.576l0 0q24.576 0 24.576 24.576Z" fill="#FFFFFF" p-id="17301"></path><path d="M122.96192 382.64832V210.37056a40.96 40.96 0 0 1 40.96-40.96h271.40096a40.96 40.96 0 0 1 31.70304 14.99136l35.51232 43.33568a40.96 40.96 0 0 0 31.66208 14.99136h331.53024a40.96 40.96 0 0 1 40.96 40.96v98.95936H122.96192z" fill="#FFA53D" p-id="17302"></path></svg>