<?xml version="1.0" standalone="no"?><!DOCTYPE svg PUBLIC "-//W3C//DTD SVG 1.1//EN" "http://www.w3.org/Graphics/SVG/1.1/DTD/svg11.dtd"><svg t="1769995661621" class="icon" viewBox="0 0 1024 1024" version="1.1" xmlns="http://www.w3.org/2000/svg" p-id="35253" xmlns:xlink="http://www.w3.org/1999/xlink" width="128" height="128"><path d="M170.974968 11.297032h603.43329l164.864 177.730065v739.096774a84.562581 84.562581 0 0 1-84.562581 84.562581H170.974968a84.562581 84.562581 0 0 1-84.562581-84.562581V95.892645a84.562581 84.562581 0 0 1 84.562581-84.56258z" fill="#FBB45E" p-id="35254"></path><path d="M357.623742 203.230968h125.175742a12.519226 12.519226 0 0 1 0 25.038451h-125.192258a12.519226 12.519226 0 1 1 0-25.038451z m0 250.351484h125.175742a12.519226 12.519226 0 1 1 0 25.038451h-125.192258a12.519226 12.519226 0 1 1 0-25.038451z m0-200.274581h41.719742a12.519226 12.519226 0 1 1 0 25.038452h-41.719742a12.519226 12.519226 0 0 1 0-25.038452z m0 150.214194h41.719742a12.519226 12.519226 0 0 1 0 25.021935h-41.719742a12.519226 12.519226 0 1 1 0-25.021935z m83.439484-150.214194h141.873548a12.519226 12.519226 0 1 1 0 25.038452h-141.873548a12.519226 12.519226 0 0 1 0-25.038452z m0 150.214194h141.873548a12.519226 12.519226 0 0 1 0 25.021935h-141.873548a12.519226 12.519226 0 1 1 0-25.021935z m-83.439484-100.153807h183.576774a12.519226 12.519226 0 0 1 0 25.038452H357.623742a12.519226 12.519226 0 1 1 0-25.038452z m0 50.076903h100.13729a12.519226 12.519226 0 1 1 0 25.038452h-100.13729a12.519226 12.519226 0 1 1 0-25.038452z m141.873548 0h175.236129a12.519226 12.519226 0 1 1 0 25.038452h-175.236129a12.519226 12.519226 0 1 1 0-25.038452z m83.439484-50.076903h83.439484a12.519226 12.519226 0 0 1 0 25.038452h-83.439484a12.519226 12.519226 0 1 1 0-25.038452z m41.719742-50.060387h41.719742a12.519226 12.519226 0 1 1 0 25.038452h-41.719742a12.519226 12.519226 0 0 1 0-25.038452z m0 150.214194h41.719742a12.519226 12.519226 0 0 1 0 25.021935h-41.719742a12.519226 12.519226 0 1 1 0-25.021935z m-100.13729-200.291097h33.36258a12.519226 12.519226 0 0 1 0 25.038451h-33.36258a12.519226 12.519226 0 1 1 0-25.038451z m0 250.351484h33.36258a12.519226 12.519226 0 1 1 0 25.038451h-33.36258a12.519226 12.519226 0 1 1 0-25.038451z m75.098839-250.351484h66.758193a12.519226 12.519226 0 0 1 0 25.038451h-66.758193a12.519226 12.519226 0 1 1 0-25.038451z m0 250.351484h66.758193a12.519226 12.519226 0 1 1 0 25.038451h-66.758193a12.519226 12.519226 0 1 1 0-25.038451z" fill="#FFFFFF" p-id="35255"></path><path d="M293.144774 595.456h34.188387v143.938065c0 24.443871-4.954839 42.330839-14.897548 54.255483-11.115355 12.519226-28.655484 18.762323-52.917678 18.762323-21.058065 0-37.144774-5.945806-47.962838-17.870452-11.115355-11.924645-16.664774-28.325161-16.664774-49.185032v-6.854193h34.204903v6.556903c0 24.443871 10.24 36.665806 31.000774 36.665806 11.396129 0 19.885419-3.584 25.154065-10.438193 5.252129-6.854194 7.89471-17.870452 7.894709-33.081807v-142.748903z m129.23871 54.536258c39.754323 0 61.687742 16.08671 65.205677 48.887742h-32.454193c-2.34529-7.762581-5.863226-13.427613-10.537291-16.400516-4.954839-3.28671-12.568774-4.773161-22.792258-4.773161-8.786581 0-15.508645 1.189161-19.901935 3.88129-5.252129 2.675613-7.597419 6.854194-7.597419 12.816516 0 4.756645 3.79871 9.232516 11.990709 12.816516 4.971355 2.081032 14.914065 5.053935 30.12542 8.91871 16.945548 4.195097 29.811613 8.951742 38.003612 14.616774 11.99071 7.762581 18.13471 18.778839 18.13471 32.487226 0 32.784516-22.808774 49.168516-68.129032 49.168516-42.116129 0-64.627613-18.167742-67.848258-54.238968h32.454193c1.767226 9.843613 5.285161 16.68129 10.24 20.859871 4.971355 3.584 12.882581 5.665032 23.98142 5.665032 23.386839 0 35.080258-6.556903 35.080258-19.076129 0-7.151484-4.376774-12.816516-13.146839-16.97858-4.690581-2.394839-14.63329-5.070452-29.828129-8.637936-17.837419-4.178581-30.406194-8.654452-37.722839-13.427613-11.693419-7.432258-17.540129-17.870452-17.540129-31.281548 0-14.302968 5.549419-25.335742 17.242839-33.081806 11.396129-8.357161 26.32671-12.221935 45.039484-12.221936z m166.664258 0c22.792258 0 41.224258 7.448774 55.262968 22.957419 13.741419 15.194839 20.760774 34.568258 20.760774 58.401033 0 23.552-7.019355 42.925419-20.48 57.822967-14.022194 15.492129-32.734968 23.238194-55.543742 23.238194-23.106065 0-41.521548-7.746065-55.560258-23.238194-13.741419-14.897548-20.463484-34.270968-20.463484-57.806451 0-23.84929 6.722065-43.22271 20.760774-58.434065 13.741419-15.492129 32.156903-22.957419 55.262968-22.957419z m0 27.714065c-14.03871 0-24.559484 5.367742-32.156903 16.68129-6.44129 9.546323-9.661935 22.065548-9.661936 36.963097 0 14.897548 3.220645 27.119484 9.661936 36.665806 7.597419 11.016258 18.118194 16.68129 32.156903 16.68129 13.741419 0 24.559484-5.665032 32.156903-16.68129 6.44129-9.843613 9.94271-22.065548 9.94271-36.665806 0-14.897548-3.501419-27.416774-9.94271-36.946581-7.597419-11.330065-18.415484-16.68129-32.156903-16.68129z m183.329032-27.714065c37.722839 0 56.732903 20.859871 56.732903 63.174194v95.083354h-33.329548V716.139355c0-25.335742-11.396129-37.854968-34.221419-37.854968-8.175484 0-15.492129 2.972903-21.636129 8.951742-7.019355 6.556903-11.098839 16.08671-12.271484 28.308645v92.688516h-33.346065v-154.095484h33.346065v17.886968c5.84671-7.151484 12.568774-12.816516 19.885419-16.384 7.597419-3.88129 15.789419-5.665032 24.840258-5.665032z" fill="#FFFFFF" p-id="35256"></path><path d="M776.588387 12.535742l163.526194 176.590452H808.299355a31.710968 31.710968 0 0 1-31.710968-31.710968V12.552258z" fill="#FFDC9F" p-id="35257"></path></svg>