<?xml version="1.0" standalone="no"?><!DOCTYPE svg PUBLIC "-//W3C//DTD SVG 1.1//EN" "http://www.w3.org/Graphics/SVG/1.1/DTD/svg11.dtd"><svg t="1768298319847" class="icon" viewBox="0 0 1024 1024" version="1.1" xmlns="http://www.w3.org/2000/svg" p-id="12044" xmlns:xlink="http://www.w3.org/1999/xlink" width="128" height="128"><path d="M691.2 102.4l204.8 179.2v513.28A126.72 126.72 0 0 1 769.28 921.6H254.72A126.72 126.72 0 0 1 128 794.88V229.12A126.72 126.72 0 0 1 254.72 102.4H691.2z" fill="#47B8F4" p-id="12045"></path><path d="M896 281.6h-77.44a126.72 126.72 0 0 1-126.72-126.72V102.912L896 281.6z" fill="#ACEDFF" p-id="12046"></path><path d="M487.0144 523.9552v122.7776L358.4 628.992v-105.0368h128.6144z m0-140.1088v124.288H358.4v-106.5472l128.6144-17.7408z m185.1648 140.1088v148.224l-171.008-23.552v-124.672h171.008z m0-165.5552v149.7344h-171.008V381.952l171.008-23.5776z" fill="#FFFFFF" p-id="12047"></path></svg>