<?xml version="1.0" standalone="no"?><!DOCTYPE svg PUBLIC "-//W3C//DTD SVG 1.1//EN" "http://www.w3.org/Graphics/SVG/1.1/DTD/svg11.dtd"><svg t="1768367583786" class="icon" viewBox="0 0 1024 1024" version="1.1" xmlns="http://www.w3.org/2000/svg" p-id="6357" xmlns:xlink="http://www.w3.org/1999/xlink" width="128" height="128"><path d="M134.4 0c-12.8 0-25.6 6.4-35.2 16s-16 22.4-16 35.2v921.6c0 12.8 6.4 25.6 16 35.2 9.6 9.6 22.4 16 35.2 16h755.2c12.8 0 25.6-6.4 35.2-16 9.6-9.6 16-22.4 16-35.2V291.2L649.6 0H134.4z" fill="#EC722F" p-id="6358"></path><path d="M940.8 291.2h-240c-12.8 0-25.6-6.4-35.2-16-9.6-9.6-16-22.4-16-35.2V0l291.2 291.2z" fill="#FFCCB3" p-id="6359"></path><path d="M233.6 489.6h83.2c19.2 0 32 0 44.8 3.2 12.8 3.2 25.6 9.6 35.2 22.4 9.6 9.6 16 22.4 22.4 38.4 6.4 16 6.4 32 6.4 54.4 0 19.2-3.2 35.2-6.4 48-6.4 16-12.8 28.8-25.6 41.6-9.6 6.4-19.2 12.8-32 19.2-9.6 3.2-22.4 6.4-41.6 6.4H233.6v-233.6z m44.8 38.4v150.4h35.2c12.8 0 22.4 0 28.8-3.2l19.2-9.6c6.4-3.2 9.6-12.8 12.8-22.4 3.2-9.6 3.2-25.6 3.2-41.6s0-32-3.2-41.6-6.4-16-12.8-22.4-12.8-9.6-22.4-9.6c-6.4 0-19.2-3.2-38.4-3.2h-22.4zM464 716.8v-227.2H512v188.8h115.2v38.4h-163.2zM662.4 716.8v-227.2h44.8v188.8h115.2v38.4h-160z" fill="#FFFFFF" p-id="6360"></path></svg>