<?xml version="1.0" standalone="no"?><!DOCTYPE svg PUBLIC "-//W3C//DTD SVG 1.1//EN" "http://www.w3.org/Graphics/SVG/1.1/DTD/svg11.dtd"><svg t="1750042961483" class="icon" viewBox="0 0 1024 1024" version="1.1" xmlns="http://www.w3.org/2000/svg" p-id="50168" xmlns:xlink="http://www.w3.org/1999/xlink" width="256" height="256"><path d="M0 0h1024v1024H0z" fill="#1890FF" p-id="50169"></path><path d="M844.8 494.933333l-98.133333-98.133333c-4.266667-4.266667-8.533333-8.533333-17.066667-8.533333s-12.8 4.266667-17.066667 8.533333v76.8h-166.4V307.2h76.8c8.533333-8.533333 8.533333-21.333333 0-34.133333l-98.133333-98.133334S516.266667 170.666667 512 170.666667s-12.8 4.266667-17.066667 8.533333L396.8 277.333333c-4.266667 4.266667-4.266667 8.533333-4.266667 12.8 0 4.266667 4.266667 12.8 8.533334 17.066667h76.8v166.4h-170.666667V396.8c-8.533333-8.533333-21.333333-8.533333-29.866667 0l-98.133333 98.133333c-8.533333 8.533333-8.533333 21.333333 0 34.133334l98.133333 98.133333c4.266667 4.266667 8.533333 8.533333 17.066667 8.533333 4.266667 0 12.8-4.266667 17.066667-8.533333v-76.8h166.4v166.4H396.8c-4.266667 4.266667-8.533333 8.533333-8.533333 17.066667 0 4.266667 4.266667 12.8 8.533333 17.066666l98.133333 98.133334c8.533333 8.533333 21.333333 8.533333 34.133334 0l98.133333-98.133334c8.533333-8.533333 8.533333-21.333333 0-34.133333h-76.8v-166.4h166.4v76.8c8.533333 8.533333 21.333333 8.533333 34.133333 0l98.133334-98.133333c8.533333-8.533333 8.533333-25.6-4.266667-34.133334z" fill="#FFFFFF" p-id="50170"></path></svg>