<?xml version="1.0" standalone="no"?><!DOCTYPE svg PUBLIC "-//W3C//DTD SVG 1.1//EN" "http://www.w3.org/Graphics/SVG/1.1/DTD/svg11.dtd"><svg t="1768306411698" class="icon" viewBox="0 0 1024 1024" version="1.1" xmlns="http://www.w3.org/2000/svg" p-id="14324" width="128" height="128" xmlns:xlink="http://www.w3.org/1999/xlink"><path d="M967.109374 281.6v628.618748c0 62.862656-50.910779 113.781252-113.773435 113.781252H170.664061c-62.862656 0-113.773435-50.918595-113.773435-113.781252V113.781252C56.890626 50.918595 107.793588 0 170.664061 0h514.845313l281.6 281.6z" fill="#80DEEA" p-id="14325"></path><path d="M685.509374 167.826565V0l281.6 281.6h-167.818748c-62.862656 0-113.781252-50.918595-113.781252-113.781252z" fill="#26C6DA" p-id="14326"></path><path d="M512 341.335939a227.54687 227.54687 0 0 1 227.570321 227.54687A227.554687 227.554687 0 1 1 512 341.343756z m71.226626 253.498626a74.814534 74.814534 0 0 1-39.169954 42.804763l53.419969 114.570748A201.798351 201.798351 0 0 0 702.182595 638.123969l-118.955969-43.289404z m-71.226626-76.526412a50.574656 50.574656 0 1 0 0 101.149313 50.574656 50.574656 0 0 0 0-101.149313zM426.523359 385.571176A201.696733 201.696733 0 0 0 321.817405 499.657282l118.955969 43.289405a74.744183 74.744183 0 0 1 39.169954-42.804763l-53.419969-114.578565zM534.926656 558.220702a25.279511 25.279511 0 1 1 0-0.031267" fill="#FFFFFF" p-id="14327"></path></svg>