<?xml version="1.0" standalone="no"?><!DOCTYPE svg PUBLIC "-//W3C//DTD SVG 1.1//EN" "http://www.w3.org/Graphics/SVG/1.1/DTD/svg11.dtd"><svg t="1767777306393" class="icon" viewBox="0 0 1024 1024" version="1.1" xmlns="http://www.w3.org/2000/svg" p-id="48496" xmlns:xlink="http://www.w3.org/1999/xlink" width="128" height="128"><path d="M512 512m-512 0a512 512 0 1 0 1024 0 512 512 0 1 0-1024 0Z" fill="#B0BEC5" p-id="48497"></path><path d="M512 512m-485.052632 0a485.052632 485.052632 0 1 0 970.105264 0 485.052632 485.052632 0 1 0-970.105264 0Z" fill="#B8C4CB" p-id="48498"></path><path d="M855.04 855.04a489.903158 489.903158 0 0 0 85.692632-116.143158L512 512l226.896842 428.732632a489.903158 489.903158 0 0 0 116.143158-85.692632zM512 512L285.103158 83.267368a485.052632 485.052632 0 0 0-201.83579 201.83579z" fill="#C4CED3" p-id="48499"></path><path d="M512 512L55.242105 350.315789a479.124211 479.124211 0 0 0-23.983158 99.166316zM992.741053 574.517895L512 512l458.105263 161.684211a479.124211 479.124211 0 0 0 22.63579-99.166316z" fill="#D2DADE" p-id="48500"></path><path d="M512 512m-188.631579 0a188.631579 188.631579 0 1 0 377.263158 0 188.631579 188.631579 0 1 0-377.263158 0Z" fill="#ECEFF1" p-id="48501"></path><path d="M512 512m-53.894737 0a53.894737 53.894737 0 1 0 107.789474 0 53.894737 53.894737 0 1 0-107.789474 0Z" fill="#263238" p-id="48502"></path></svg>