<?xml version="1.0" standalone="no"?><!DOCTYPE svg PUBLIC "-//W3C//DTD SVG 1.1//EN" "http://www.w3.org/Graphics/SVG/1.1/DTD/svg11.dtd"><svg t="1750043803769" class="icon" viewBox="0 0 1024 1024" version="1.1" xmlns="http://www.w3.org/2000/svg" p-id="65204" xmlns:xlink="http://www.w3.org/1999/xlink" width="256" height="256"><path d="M0 0h1024v1024H0z" fill="#214ac4" fill-opacity="0" p-id="65205"></path><path d="M811.52 191.488l-79.872-19.968c-19.456-4.608-30.72-24.064-26.112-43.52s24.064-30.72 43.52-26.112l200.192 50.176-50.176 200.192c-4.608 19.456-24.064 30.72-43.52 26.112-19.456-4.608-30.72-24.064-26.112-43.52l20.48-82.432c-67.072 30.72-124.928 70.144-173.568 118.784-63.488 63.488-103.936 114.688-121.856 152.576-8.192 17.92-29.696 25.6-47.616 16.896-17.92-8.192-25.6-29.696-16.896-47.616 22.016-46.592 67.072-103.936 136.192-172.544 52.224-52.736 114.176-95.744 185.344-129.024z m39.936 330.24c0-19.968 15.872-35.84 35.84-35.84s35.84 15.872 35.84 35.84v240.64c0 89.088-72.192 160.768-160.768 160.768H261.632c-89.088 0-160.768-72.192-160.768-160.768V261.632c0-89.088 72.192-160.768 160.768-160.768h218.624c19.968 0 35.84 15.872 35.84 35.84s-15.872 35.84-35.84 35.84H261.632c-49.152 0-89.088 39.936-89.088 89.088v500.736c0 49.152 39.936 89.088 89.088 89.088h500.736c49.152 0 89.088-39.936 89.088-89.088v-240.64z" fill="#214ac4" p-id="65206"></path></svg>