<?xml version="1.0" standalone="no"?><!DOCTYPE svg PUBLIC "-//W3C//DTD SVG 1.1//EN" "http://www.w3.org/Graphics/SVG/1.1/DTD/svg11.dtd"><svg t="1769995212695" class="icon" viewBox="0 0 1024 1024" version="1.1" xmlns="http://www.w3.org/2000/svg" p-id="7441" xmlns:xlink="http://www.w3.org/1999/xlink" width="128" height="128"><path d="M930.304 896a128 128 0 0 1-128 128h-576a128 128 0 0 1-128-128V128a128 128 0 0 1 128-128h448l256 256v640z" fill="#695DF7" p-id="7442"></path><path d="M254.08 448h46.272l79.488 81.024a12.8 12.8 0 0 0 18.24 0L477.568 448h46.272c7.04 0 12.8 5.76 12.8 12.8v215.36a12.8 12.8 0 0 1-12.8 12.8h-33.472a12.8 12.8 0 0 1-12.8-12.8V533.248L398.08 614.272a12.8 12.8 0 0 1-18.24 0L300.352 533.248v142.912a12.8 12.8 0 0 1-12.8 12.8H254.08a12.8 12.8 0 0 1-12.8-12.8V460.8c0-7.04 5.76-12.8 12.8-12.8z m489.344 12.8v94.848c0 7.04 5.76 12.8 12.8 12.8h32.896a12.8 12.8 0 0 1 9.664 21.248l-89.984 103.232a12.8 12.8 0 0 1-19.328 0L599.488 589.696a12.8 12.8 0 0 1 9.6-21.248h32.96a12.8 12.8 0 0 0 12.8-12.8V460.8c0-7.04 5.76-12.8 12.8-12.8h62.976c7.04 0 12.8 5.76 12.8 12.8z" fill="#FFFFFF" p-id="7443"></path><path d="M674.304 0l256 256h-191.232a64 64 0 0 1-64-63.744L674.304 0z" fill="#FFFFFF" opacity=".403" p-id="7444"></path></svg>