<?xml version="1.0" standalone="no"?><!DOCTYPE svg PUBLIC "-//W3C//DTD SVG 1.1//EN" "http://www.w3.org/Graphics/SVG/1.1/DTD/svg11.dtd"><svg t="1766892298361" class="icon" viewBox="0 0 1024 1024" version="1.1" xmlns="http://www.w3.org/2000/svg" p-id="10922" xmlns:xlink="http://www.w3.org/1999/xlink" width="200" height="200"><path d="M889.856 6.144H134.144C62.976 6.144 5.12 64 5.12 135.168v756.224c0 70.656 57.856 129.024 129.024 129.024h756.224c70.656 0 129.024-57.856 129.024-129.024V135.168c-0.512-71.168-58.368-129.024-129.536-129.024zM261.632 842.24L327.68 758.272c-195.072-128-227.84-290.816 28.672-603.136-105.984 274.944-72.192 397.312 61.952 487.936l64-81.92 107.52 311.296-328.192-30.208z m406.528 29.184c105.984-274.944 72.192-397.312-61.952-487.936l-64 81.92-107.52-311.296 327.68 29.184L696.32 268.288c195.072 128 228.352 290.816-28.16 603.136z" fill="#1296DB" p-id="10923"></path><path d="M606.208 384z" p-id="10924"></path></svg>