<?xml version="1.0" standalone="no"?><!DOCTYPE svg PUBLIC "-//W3C//DTD SVG 1.1//EN" "http://www.w3.org/Graphics/SVG/1.1/DTD/svg11.dtd"><svg t="1769995706808" class="icon" viewBox="0 0 1024 1024" version="1.1" xmlns="http://www.w3.org/2000/svg" p-id="38339" xmlns:xlink="http://www.w3.org/1999/xlink" width="128" height="128"><path d="M610.88071 0L937.720621 341.342794V904.514412c0 65.958315-36.384922 119.457206-102.967628 119.457207H214.790244C148.207539 1024 86.279379 970.501109 86.279379 904.514412V119.485588C86.279379 53.47051 148.207539 0 214.790244 0h396.090466z" fill="#E94848" p-id="38340"></path><path d="M717.481153 452.313969c2.384035 0.62439 4.824834 1.078492 7.152106 1.929933 7.152106 2.724612 9.479379 8.911752 9.309091 16.745012-0.227051 10.841685-0.936585 21.569845-3.859867 32.156097-5.392461 19.583149-17.028825 32.553437-33.85898 40.273171-11.863415 5.392461-24.322838 7.379157-36.895787 8.911751-8.684701 1.050111-17.312639 2.298891-25.968958 3.547672a11.778271 11.778271 0 0 0-3.405765 1.135255c-4.626164 2.27051-5.818182 6.641242-2.412417 10.52949 3.547672 4.030155 7.464302 7.719734 11.579601 11.011974 15.524612 12.402661 31.474945 24.15255 46.687362 36.95255a186.749446 186.749446 0 0 1 43.76408 51.881153c11.267406 20.150776 16.972062 42.089579 16.234146 66.128603-0.19867 6.357428-2.980044 10.018625-8.741463 10.302439-8.911752 0.454102-17.823503 0.539246-26.763637 0.62439-11.068736 0.113525-22.137472 0.056763-33.206208 0.085144-11.295787 0-22.591574 0-33.887362 0.056763-8.06031 0-16.120621 0.141907-24.209312 0.141907-2.355654 0-4.711308-0.085144-7.095344-0.312195-10.047007-0.908204-13.764967-4.995122-14.758315-16.09224-1.475831-15.780044-3.774723-31.247894-9.564523-45.807539a121.415521 121.415521 0 0 0-45.83592-56.819512c-17.596452-11.97694-36.725499-19.469623-57.500665-21.371175-20.519734-1.873171-39.592018 2.384035-54.917961 19.668293-9.252328 10.472727-14.360976 23.357871-17.908647 37.094456-1.64612 6.215521-3.036807 12.487805-4.824834 18.646564-2.043459 6.981818-7.492683 8.429268-12.998669 8.627938-12.033703 0.425721-24.095787 0.425721-36.12949 0.539246-11.068736 0.085144-22.137472 0.113525-33.23459 0.170288-10.217295 0.056763-20.43459 0.227051-30.651885 0.141907a33.773836 33.773836 0 0 1-7.946785-1.333925c-3.859867-0.964967-5.392461-3.349002-5.193791-7.662971 1.333925-26.196009 11.324169-47.538803 30.424833-63.744568 15.723282-13.339246 33.631929-21.626608 52.420399-27.302882 17.823503-5.392461 35.93082-9.592905 53.86785-14.44612 5.051885-1.362306 10.103769-2.838137 14.928603-4.881596 7.748115-3.292239 9.025277-8.684701 2.8949-14.616408a138.047007 138.047007 0 0 0-19.100665-15.184036c-17.96541-12.147228-36.498448-23.32949-52.874501-38.144567-16.745011-15.212417-30.822173-32.752106-38.456763-55.797783-4.030155-12.118847-5.704656-24.691796-5.676275-37.633703 0-4.966741 2.27051-8.826608 7.350776-10.075388 5.960089-1.44745 12.118847-2.27051 18.192461-2.46918 13.764967-0.397339 27.529933-0.227051 41.2949-0.255432l33.23459 0.056763c8.173836 0 16.347672-0.113525 24.521508-0.085144 3.774723 0 7.521064 0.19867 11.295787 0.283813 6.329047 0.141907 9.08204 2.327273 10.274058 9.223947 1.44745 8.117073 2.412417 16.347672 3.689579 24.521508 4.427494 29.31796 14.985366 54.91796 36.157871 73.876718 14.588027 13.055432 31.560089 19.129047 50.37694 19.980488 9.848337 0.454102 19.583149 0.283814 29.119291-3.235477 14.644789-5.392461 21.768514-17.596452 20.377827-34.48337-0.596009-7.776497-1.106874-15.609756-1.560976-23.414634-0.312195-5.307317 1.277162-8.514412 6.073614-9.479379 5.960089-1.220399 12.147228-1.64612 18.249224-1.731264 12.147228-0.19867 24.294457 0.113525 36.441685 0.170288 11.068736 0.056763 22.137472-0.028381 33.206209 0.056763 6.81153 0.056763 13.537916 0.312195 20.321064 0.510865v0.397339" fill="#FFFFFF" p-id="38341"></path><path d="M937.720621 341.342794h-200.202217C670.935698 341.342794 597.144124 282.394678 597.144124 216.464745V0.62439l340.576497 340.718404z" fill="#000000" fill-opacity=".255" p-id="38342"></path></svg>