<?xml version="1.0" standalone="no"?><!DOCTYPE svg PUBLIC "-//W3C//DTD SVG 1.1//EN" "http://www.w3.org/Graphics/SVG/1.1/DTD/svg11.dtd"><svg t="1750042670371" class="icon" viewBox="0 0 1024 1024" version="1.1" xmlns="http://www.w3.org/2000/svg" p-id="42371" xmlns:xlink="http://www.w3.org/1999/xlink" width="256" height="256"><path d="M813.712 128A82.288 82.288 0 0 1 896 210.288V704a82.288 82.288 0 0 1-82.288 82.288h-27.424v27.424A82.288 82.288 0 0 1 704 896H210.288A82.288 82.288 0 0 1 128 813.712V320a82.288 82.288 0 0 1 82.288-82.288h27.424v-27.424A82.288 82.288 0 0 1 320 128h493.712z m0.464 54.864H320c-14.992 0-27.184 12.032-27.424 26.96v27.888H704A82.288 82.288 0 0 1 786.288 320v411.424h27.424c14.992 0 27.2-12.032 27.424-26.976V210.288c0-14.992-12.032-27.2-26.96-27.424zM457.12 416c-14.992 0-27.168 12.032-27.424 26.976v96.448h-96c-14.992 0-27.184 12.048-27.424 26.976v0.464c0 14.992 12.032 27.168 26.976 27.424h96.448v96c0 14.992 12.032 27.184 26.976 27.424h0.448c15.008 0 27.2-12.032 27.424-26.976v-96.448h96c15.008 0 27.2-12.032 27.44-26.976v-0.448c0-15.008-12.032-27.2-26.976-27.44h-96.448v-96c0-14.992-12.048-27.184-26.976-27.424h-0.464z" fill="#3478FE" p-id="42372"></path><path d="M238.72 197.344c18.304 2.496 36.32 5.856 54.016 10.016-0.096 0.816-0.16 1.648-0.16 2.464v27.888h92.672C591.424 325.392 736 529.808 736 768c0 43.28-4.768 85.44-13.824 125.984A82.176 82.176 0 0 1 704 896H210.288A82.288 82.288 0 0 1 128 813.712V320a82.288 82.288 0 0 1 82.288-82.288h27.424v-27.424c0-3.504 0.224-6.944 0.64-10.32l0.384-2.624zM457.6 416h-0.464c-14.992 0-27.168 12.032-27.424 26.976v96.448h-96c-14.208 0-25.888 10.8-27.28 24.64l-0.16 2.8c0 14.992 12.048 27.168 26.992 27.424h96.448v96c0 14.208 10.8 25.888 24.64 27.28l2.784 0.16c15.008 0 27.2-12.048 27.424-26.992v-96.448h96c14.224 0 25.904-10.8 27.296-24.64l0.144-2.784c0-15.008-12.032-27.2-26.976-27.44h-96.448v-96c0-14.992-12.048-27.184-26.976-27.424z" fill="#4080FD" p-id="42373"></path><path d="M128 411.312a480.576 480.576 0 0 1 195.456 130.112c-9.232 3.728-15.968 12.32-17.024 22.576l-0.16 2.864c0 14.992 12.048 27.168 26.992 27.424h31.84A477.76 477.76 0 0 1 448 864c0 10.752-0.352 21.424-1.056 32H210.288A82.288 82.288 0 0 1 128 813.712v-402.4z" fill="#4D89FD" p-id="42374"></path></svg>