<?xml version="1.0" standalone="no"?><!DOCTYPE svg PUBLIC "-//W3C//DTD SVG 1.1//EN" "http://www.w3.org/Graphics/SVG/1.1/DTD/svg11.dtd"><svg t="1769995790162" class="icon" viewBox="0 0 1024 1024" version="1.1" xmlns="http://www.w3.org/2000/svg" p-id="41333" xmlns:xlink="http://www.w3.org/1999/xlink" width="128" height="128"><path d="M157.538 228.43c0-66.165 0-99.248 12.88-124.533a118.154 118.154 0 0 1 51.632-51.634c25.285-12.878 58.368-12.878 124.535-12.878h244.184l275.693 275.692V716.8c0 66.166 0 99.25-12.88 124.534a118.154 118.154 0 0 1-51.632 51.633c-25.285 12.88-58.368 12.88-124.535 12.88h-330.83c-66.167 0-99.25 0-124.535-12.88a118.154 118.154 0 0 1-51.633-51.633c-12.879-25.285-12.879-58.368-12.879-124.534z" fill="#E8EAED" p-id="41334"></path><path d="M590.77 39.385l275.692 275.692H669.538a78.77 78.77 0 0 1-78.769-78.77z" fill="#FFFFFF" opacity=".5" p-id="41335"></path><path d="M493.332 354.462l-84.756 127.094v80.541h-51.909v-80.541l-80.975-127.094h58.368l51.476 81.84 51.909-81.84z" p-id="41336"></path><path d="M580.647 516.411h-94.05l-19.102 46.159h-41.63l88.025-207.636h42.575l84.48 207.636h-44.504z m-15.635-41.472l-28.83-76.17-32.138 76.21z" fill="#CB171E" p-id="41337"></path><path d="M356.628 585.413v203.5h43.638V648.546l45.686 94.327h34.383l47.261-97.674v143.675h41.906V585.413h-57.187l-50.767 92.002-48.325-92.002z m391.68 159.271H640.866v-159.35h-44.504v202.634h151.946z" p-id="41338"></path></svg>