<?xml version="1.0" standalone="no"?><!DOCTYPE svg PUBLIC "-//W3C//DTD SVG 1.1//EN" "http://www.w3.org/Graphics/SVG/1.1/DTD/svg11.dtd"><svg t="1766892196846" class="icon" viewBox="0 0 1024 1024" version="1.1" xmlns="http://www.w3.org/2000/svg" p-id="7001" xmlns:xlink="http://www.w3.org/1999/xlink" width="200" height="200"><path d="M392 88h424c44.184 0 80 35.816 80 80v520c0 44.184-35.816 80-80 80H392c-44.184 0-80-35.816-80-80V168c0-44.184 35.816-80 80-80z" fill="#FFF4DC" p-id="7002"></path><path d="M793.96 720h-96v48h96v-48z m-160 0h-96v48h96v-48zM392 720a31.872 31.872 0 0 1-13.696-3.072l-20.56 43.376c10.64 5.04 22.304 7.696 34.256 7.696h81.968l-0.008-48H392z m504-120.984h-48V688c0 2.4-0.264 4.728-0.76 6.976l46.856 10.416c1.264-5.688 1.904-11.52 1.904-17.392V599.016z m-536-36.072h-48v96h48v-96z m536-123.928h-48v96h48v-96z m-536-36.072h-48v96h48v-96z m536-123.928h-48v96h48v-96z m-536-36.072h-48v96h48v-96zM816 88h-3.936v48H816a32 32 0 0 1 32 32v47.016h48V168c0-43.44-34.616-78.784-77.76-79.968L816 88z m-387.936 48v-48H392c-44.184 0-80 35.816-80 80v10.952l48-0.008V168a32 32 0 0 1 32-32h36.064z m160-48h-96v48h96v-48z m160 0h-96v48h96v-48z" fill="#FFB202" p-id="7003"></path><path d="M640 216a64 64 0 0 1 64 64v584a64 64 0 0 1-64 64H192a64 64 0 0 1-64-64V280a64 64 0 0 1 64-64h448z" fill="#3863FC" p-id="7004"></path><path d="M640 264H192a16 16 0 0 0-15.96 14.8L176 280v584a16 16 0 0 0 14.8 15.96L192 880h448a16 16 0 0 0 15.96-14.8L656 864V280a16 16 0 0 0-14.8-15.96L640 264z" fill="#E8EEFF" p-id="7005"></path><path d="M304 392h240a16 16 0 0 1 16 16v24a16 16 0 0 1-16 16H304a16 16 0 0 1-16-16v-24a16 16 0 0 1 16-16z" fill="#3863FC" p-id="7006"></path><path d="M304 536h240a16 16 0 0 1 16 16v24a16 16 0 0 1-16 16H304a16 16 0 0 1-16-16v-24a16 16 0 0 1 16-16z" fill="#FFB202" p-id="7007"></path><path d="M304 680h240a16 16 0 0 1 16 16v24a16 16 0 0 1-16 16H304a16 16 0 0 1-16-16v-24a16 16 0 0 1 16-16z" fill="#3863FC" p-id="7008"></path></svg>