<?xml version="1.0" standalone="no"?><!DOCTYPE svg PUBLIC "-//W3C//DTD SVG 1.1//EN" "http://www.w3.org/Graphics/SVG/1.1/DTD/svg11.dtd"><svg t="1750041953903" class="icon" viewBox="0 0 1024 1024" version="1.1" xmlns="http://www.w3.org/2000/svg" p-id="1551" xmlns:xlink="http://www.w3.org/1999/xlink" width="256" height="256"><path d="M0 0m146.285714 0l731.428572 0q146.285714 0 146.285714 146.285714l0 731.428572q0 146.285714-146.285714 146.285714l-731.428572 0q-146.285714 0-146.285714-146.285714l0-731.428572q0-146.285714 146.285714-146.285714Z" fill="#67ADFF" p-id="1552"></path><path d="M720.969143 693.833143v36.571428a12.653714 12.653714 0 0 1-13.092572 12.288H316.050286a12.653714 12.653714 0 0 1-13.019429-12.288v-36.571428a50.688 50.688 0 0 0-52.297143-49.005714h-52.224a50.688 50.688 0 0 0-52.224 49.005714v110.299428A76.068571 76.068571 0 0 0 224.621714 877.714286h574.756572A76.068571 76.068571 0 0 0 877.714286 804.132571V693.833143a50.688 50.688 0 0 0-52.224-49.005714h-52.297143a50.688 50.688 0 0 0-52.224 49.005714zM608.548571 383.268571V195.437714a52.370286 52.370286 0 0 0-55.149714-49.005714H470.601143a52.370286 52.370286 0 0 0-55.149714 49.005714V383.268571a13.092571 13.092571 0 0 1-13.677715 12.214858H337.188571a28.013714 28.013714 0 0 0-24.868571 14.262857 22.381714 22.381714 0 0 0 3.949714 26.112l174.811429 182.857143a29.988571 29.988571 0 0 0 41.398857 0l175.396571-182.857143a22.381714 22.381714 0 0 0 4.022858-26.112 28.013714 28.013714 0 0 0-24.941715-14.262857h-64.585143a13.092571 13.092571 0 0 1-13.824-12.214858z" fill="#FFFFFF" p-id="1553"></path></svg>