<?xml version="1.0" standalone="no"?><!DOCTYPE svg PUBLIC "-//W3C//DTD SVG 1.1//EN" "http://www.w3.org/Graphics/SVG/1.1/DTD/svg11.dtd"><svg t="1769995531427" class="icon" viewBox="0 0 1024 1024" version="1.1" xmlns="http://www.w3.org/2000/svg" p-id="30132" xmlns:xlink="http://www.w3.org/1999/xlink" width="128" height="128"><path d="M930.304 896a128 128 0 0 1-128 128h-576a128 128 0 0 1-128-128V128a128 128 0 0 1 128-128h448l256 256v640z" fill="#0060B0" p-id="30133"></path><path d="M674.304 0l256 256h-191.232a64 64 0 0 1-64-63.744L674.304 0z" fill="#FFFFFF" opacity=".403" p-id="30134"></path><path d="M703.104 466.048l1.792 0.192 2.304 0.32 5.568 1.216 4.352 1.792 5.504 2.944 5.184 4.096 5.824 5.824 5.504 7.68 5.312 10.048 4.8 12.8 3.584 15.744 2.56 19.2 0.896 23.168-1.216 23.104-3.008 19.2-4.48 15.424-5.568 12.16-6.208 9.6-6.592 7.104-6.592 4.928-6.656 3.648-6.208 2.304-5.376 1.28-5.12 0.64-3.84 0.32-1.152-0.192H517.12v43.328h115.584l0.192 41.152 0.448 7.808-0.896 4.032-1.536 3.584-2.304 3.392-2.816 2.24-4.864 3.584-5.504 2.688-7.296 2.688-9.024 2.624-10.624 2.368-11.584 1.6-13.504 1.28-14.592 0.768-16.128 0.192-24.512-0.832-19.84-2.624-16.64-3.776-13.056-4.48-9.92-5.248-7.04-5.376-5.12-5.376-3.648-5.184-1.92-4.416-1.28-4.288-0.256-2.816-0.064-3.328V639.36l0.96-11.648 2.24-8.576 3.328-6.656 4.032-5.504 4.608-4.672 4.608-3.072 5.696-3.2 5.248-1.92 5.44-1.6 4.672-0.832 4.48-0.704 3.392-0.32 2.368-0.128h114.56l14.656-1.024 13.824-3.072 12.032-4.864 10.496-6.848 8.32-7.808 6.656-8.384 5.12-8.832 3.584-8.512 2.56-8.384 1.536-7.168 0.96-6.528 0.512-4.8v-48.32h27.84z m-106.496 263.232l-8.128 1.6-6.528 4.48-4.544 6.592-1.6 8.128 1.6 8.128 4.48 6.528 6.592 4.48 8.128 1.664 8.128-1.6 6.528-4.544 4.48-6.528 1.664-8.128-1.6-8.128-4.544-6.528-6.528-4.544-8.128-1.6z m-67.008-383.36l24.32 0.96 19.84 2.496 16.704 3.712 12.864 4.672 10.112 5.312 7.168 5.248 4.992 5.312 3.584 5.12 1.92 4.48 1.28 4.288 0.32 2.88v110.208L631.744 512l-2.24 8.832-3.264 6.592-4.032 5.504-4.48 4.352-4.992 3.584-5.184 2.624-5.504 2.112-5.44 1.6-5.12 1.152-4.096 0.64-3.392 0.256H467.2l-14.656 0.96-13.824 3.136-12.224 5.12-10.112 6.4-8.512 7.936-6.656 8.384-5.12 8.832-3.648 8.832-2.432 8.32-1.6 7.168-0.96 6.208-0.512 4.864-0.064 48.256-30.592 0.064-2.24-0.448-4.16-1.152-4.864-1.92-5.44-2.88-5.44-4.096-5.44-5.76-5.76-7.68-5.12-9.92-4.864-12.864-3.648-15.68-2.496-19.456-0.896-23.104 1.216-22.976 3.008-19.2 4.416-15.616 5.632-12.16 6.208-9.6 6.528-6.784 6.656-4.992 6.656-3.648 6.208-2.368 5.76-1.472 4.736-0.64h4.8l163.84 0.128h13.504v-43.52L429.44 425.728l-0.128-40.832L428.8 376.96l0.896-4.032 1.536-3.584 2.176-3.072 3.136-2.752 4.416-3.072 5.76-2.816 7.552-3.008 8.768-2.56 10.368-2.112 12.032-1.856 13.12-1.024 14.784-0.768 16.256-0.384z m-64.064 23.04l-8.128 1.792-6.528 4.352-4.544 6.528-1.6 8.128 1.6 8.128 4.544 6.72 6.528 4.352 8.128 1.792 8.128-1.792 6.528-4.352 4.544-6.72 1.6-8.128-1.6-8.128-4.544-6.528-6.528-4.352-8.128-1.792z" fill="#FFFFFF" p-id="30135"></path></svg>