<?xml version="1.0" standalone="no"?><!DOCTYPE svg PUBLIC "-//W3C//DTD SVG 1.1//EN" "http://www.w3.org/Graphics/SVG/1.1/DTD/svg11.dtd"><svg t="1750043580871" class="icon" viewBox="0 0 1024 1024" version="1.1" xmlns="http://www.w3.org/2000/svg" p-id="59964" xmlns:xlink="http://www.w3.org/1999/xlink" width="256" height="256"><path d="M0 0h1024v1024H0z" fill="#D8D8D8" fill-opacity=".01" p-id="59965"></path><path d="M113.792 113.792m64 0l213.312 0q64 0 64 64l0 213.312q0 64-64 64l-213.312 0q-64 0-64-64l0-213.312q0-64 64-64Z" fill="#338EFF" p-id="59966"></path><path d="M113.792 568.896m64 0l213.312 0q64 0 64 64l0 213.312q0 64-64 64l-213.312 0q-64 0-64-64l0-213.312q0-64 64-64Z" fill="#338EFF" p-id="59967"></path><path d="M568.896 568.896m64 0l213.312 0q64 0 64 64l0 213.312q0 64-64 64l-213.312 0q-64 0-64-64l0-213.312q0-64 64-64Z" fill="#338EFF" p-id="59968"></path><path d="M568.896 113.792m64 0l213.312 0q64 0 64 64l0 213.312q0 64-64 64l-213.312 0q-64 0-64-64l0-213.312q0-64 64-64Z" fill="#338EFF" p-id="59969"></path></svg>