<?xml version="1.0" standalone="no"?><!DOCTYPE svg PUBLIC "-//W3C//DTD SVG 1.1//EN" "http://www.w3.org/Graphics/SVG/1.1/DTD/svg11.dtd"><svg t="1750042337471" class="icon" viewBox="0 0 1024 1024" version="1.1" xmlns="http://www.w3.org/2000/svg" p-id="18841" xmlns:xlink="http://www.w3.org/1999/xlink" width="256" height="256"><path d="M0 0m125.155556 0l773.688888 0q125.155556 0 125.155556 125.155556l0 773.688888q0 125.155556-125.155556 125.155556l-773.688888 0q-125.155556 0-125.155556-125.155556l0-773.688888q0-125.155556 125.155556-125.155556Z" fill="#F7F8FA" p-id="18842"></path><path d="M896 1024H128A128.398222 128.398222 0 0 1 0 896V128A128.398222 128.398222 0 0 1 128 0h768A128.398222 128.398222 0 0 1 1024 128v768A128.398222 128.398222 0 0 1 896 1024zM128 64c-38.4 0-64 25.6-64 64v768c0 38.4 25.6 64 64 64h768c38.4 0 64-25.6 64-64V128c0-38.4-25.6-64-64-64H128z" fill="#7545F3" p-id="18843"></path><path d="M768 544.028444h-512c-19.228444 0-32.028444-12.856889-32.028444-32.028444 0-19.228444 12.8-32.028444 32.028444-32.028444h512c19.228444 0 32.028444 12.856889 32.028444 32.028444 0 19.228444-12.856889 32.028444-32.028444 32.028444z" fill="#7545F3" p-id="18844"></path><path d="M512 800.028444c-19.228444 0-32.028444-12.856889-32.028444-32.028444v-512c0-19.228444 12.856889-32.028444 32.028444-32.028444 19.228444 0 32.028444 12.8 32.028444 32.028444v512c0 19.228444-12.856889 32.028444-32.028444 32.028444z" fill="#7545F3" p-id="18845"></path></svg>