<?xml version="1.0" standalone="no"?><!DOCTYPE svg PUBLIC "-//W3C//DTD SVG 1.1//EN" "http://www.w3.org/Graphics/SVG/1.1/DTD/svg11.dtd"><svg t="1767498208765" class="icon" viewBox="0 0 1024 1024" version="1.1" xmlns="http://www.w3.org/2000/svg" p-id="57979" xmlns:xlink="http://www.w3.org/1999/xlink" width="256" height="256"><path d="M880 192H464c-8.8 0-16 7.2-16 16v64c0 8.8 7.2 16 16 16h160.01v592c0 8.8 7.2 16 16 16h64c8.8 0 16-7.2 16-16V288H880c8.8 0 16-7.2 16-16v-64c0-8.8-7.2-16-16-16z" fill="#5C76F9" p-id="57980"></path><path d="M496 448H144c-8.8 0-16 7.2-16 16v64c0 8.8 7.2 16 16 16h128.5v336c0 8.8 7.2 16 16 16h64c8.8 0 16-7.2 16-16V544H496c8.8 0 16-7.2 16-16v-64c0-8.8-7.2-16-16-16z" fill="#CDD8F8" p-id="57981"></path></svg>