<?xml version="1.0" standalone="no"?><!DOCTYPE svg PUBLIC "-//W3C//DTD SVG 1.1//EN" "http://www.w3.org/Graphics/SVG/1.1/DTD/svg11.dtd"><svg t="1767497721902" class="icon" viewBox="0 0 1024 1024" version="1.1" xmlns="http://www.w3.org/2000/svg" p-id="34060" xmlns:xlink="http://www.w3.org/1999/xlink" width="256" height="256"><path d="M213.333333 85.333333h409.002667a42.666667 42.666667 0 0 1 30.165333 12.501334l230.997334 230.997333a42.666667 42.666667 0 0 1 12.501333 30.165333V853.333333a85.333333 85.333333 0 0 1-85.333333 85.333334H213.333333a85.333333 85.333333 0 0 1-85.333333-85.333334V170.666667a85.333333 85.333333 0 0 1 85.333333-85.333334z" fill="#7C4DFF" p-id="34061"></path><path d="M336 426.666667h224c20.608 0 37.333333 19.114667 37.333333 42.666666v170.666667c0 23.552-16.725333 42.666667-37.333333 42.666667h-224C315.392 682.666667 298.666667 663.552 298.666667 640v-170.666667c0-23.552 16.725333-42.666667 37.333333-42.666666zM768 486.485333v136.362667a21.333333 21.333333 0 0 1-32.64 18.090667l-109.098667-68.181334a21.333333 21.333333 0 0 1 0-36.181333l109.098667-68.181333a21.333333 21.333333 0 0 1 32.64 18.090666z" fill="#FFFFFF" p-id="34062"></path><path d="M896 341.333333h-213.333333a42.666667 42.666667 0 0 1-42.666667-42.666666V85.333333l256 256z" fill="#6200EA" p-id="34063"></path></svg>