<?xml version="1.0" standalone="no"?><!DOCTYPE svg PUBLIC "-//W3C//DTD SVG 1.1//EN" "http://www.w3.org/Graphics/SVG/1.1/DTD/svg11.dtd"><svg t="1767498080009" class="icon" viewBox="0 0 1024 1024" version="1.1" xmlns="http://www.w3.org/2000/svg" p-id="49191" xmlns:xlink="http://www.w3.org/1999/xlink" width="256" height="256"><path d="M706.1 800l54.1 54.1c12.5 12.5 12.5 32.8 0 45.3s-32.8 12.5-45.3 0l-95.5-95.5c-1.2-1.2-2.3-2.5-3.3-3.9H407l-99.1 99.1c-12.5 12.5-32.8 12.5-45.3 0s-12.5-32.8 0-45.3l53.9-53.9H208c-26.5 0-48-22.8-48-50.9V304h-48c-17.7 0-32-14.3-32-32s14.3-32 32-32h800c17.7 0 32 14.3 32 32s-14.3 32-32 32h-48v445.1c0 28.1-21.5 50.9-48 50.9H706.1zM224 304v432h576V304H224z m160-128h216.5c8.8 0 16 7.2 16 16s-7.2 16-16 16H384c-8.8 0-16-7.2-16-16s7.2-16 16-16z" fill="#333333" p-id="49192"></path><path d="M320.1 657.3c-12.5 12.5-32.8 12.5-45.3 0s-12.5-32.8 0-45.3l149-149c12.5-12.5 32.8-12.5 45.3 0l52.9 53 152.7-152.7c12.5-12.5 32.8-12.5 45.3 0s12.5 32.8 0 45.3L544.6 583.9c-12.5 12.5-32.8 12.5-45.3 0L446.5 531 320.1 657.3z" fill="#0076FF" p-id="49193"></path></svg>