<?xml version="1.0" standalone="no"?><!DOCTYPE svg PUBLIC "-//W3C//DTD SVG 1.1//EN" "http://www.w3.org/Graphics/SVG/1.1/DTD/svg11.dtd"><svg t="1767497784976" class="icon" viewBox="0 0 1024 1024" version="1.1" xmlns="http://www.w3.org/2000/svg" p-id="37964" xmlns:xlink="http://www.w3.org/1999/xlink" width="256" height="256"><path d="M870.4 972.8H153.6c-56.32 0-102.4-46.08-102.4-102.4V153.6c0-56.32 46.08-102.4 102.4-102.4h716.8c56.32 0 102.4 46.08 102.4 102.4v716.8c0 56.32-46.08 102.4-102.4 102.4" fill="#FFD345" p-id="37965"></path><path d="M921.6 960c-15.36 7.68-33.28 12.8-51.2 12.8H153.6c-56.32 0-102.4-46.08-102.4-102.4V153.6c0-56.32 46.08-102.4 102.4-102.4h716.8c17.92 0 33.28 5.12 48.64 12.8l-486.4 291.84V665.6L921.6 960z" fill="#FFED74" p-id="37966"></path><path d="M524.8 302.08l-158.72 94.72c-15.36 10.24-33.28 15.36-53.76 15.36H232.96c-15.36 0-25.6 10.24-25.6 25.6v148.48c0 15.36 10.24 25.6 25.6 25.6h79.36c17.92 0 35.84 5.12 53.76 15.36l158.72 94.72c17.92 10.24 38.4-2.56 38.4-23.04V322.56c0-20.48-23.04-30.72-38.4-20.48M668.16 691.2c-10.24 0-17.92-5.12-23.04-15.36-5.12-12.8 0-28.16 12.8-33.28 51.2-23.04 84.48-74.24 84.48-130.56 0-58.88-33.28-110.08-87.04-133.12-15.36-5.12-20.48-20.48-15.36-33.28 5.12-12.8 20.48-17.92 33.28-12.8 71.68 30.72 120.32 102.4 120.32 179.2s-46.08 145.92-115.2 176.64c-5.12 2.56-7.68 2.56-10.24 2.56" fill="#FFFFFF" p-id="37967"></path><path d="M650.24 578.56c-10.24 0-17.92-5.12-23.04-15.36-5.12-12.8 0-28.16 12.8-33.28 7.68-2.56 12.8-10.24 12.8-17.92 0-7.68-5.12-15.36-12.8-17.92-12.8-5.12-17.92-20.48-12.8-33.28 5.12-12.8 20.48-17.92 33.28-12.8 25.6 10.24 43.52 38.4 43.52 66.56s-15.36 53.76-43.52 66.56c-2.56-2.56-7.68-2.56-10.24-2.56" fill="#FFFFFF" p-id="37968"></path></svg>