<?xml version="1.0" standalone="no"?><!DOCTYPE svg PUBLIC "-//W3C//DTD SVG 1.1//EN" "http://www.w3.org/Graphics/SVG/1.1/DTD/svg11.dtd"><svg t="1765523125235" class="icon" viewBox="0 0 1024 1024" version="1.1" xmlns="http://www.w3.org/2000/svg" p-id="8220" xmlns:xlink="http://www.w3.org/1999/xlink" width="256" height="256"><path d="M85.333333 128h284.437334a42.666667 42.666667 0 0 1 25.6 8.533333l62.592 46.933334a42.666667 42.666667 0 0 0 25.6 8.533333H938.666667a42.666667 42.666667 0 0 1 42.666666 42.666667v618.666666a42.666667 42.666667 0 0 1-42.666666 42.666667H85.333333a42.666667 42.666667 0 0 1-42.666666-42.666667V170.666667a42.666667 42.666667 0 0 1 42.666666-42.666667z" fill="#FF9F29" p-id="8221"></path><path d="M85.333333 298.666667h853.333334a42.666667 42.666667 0 0 1 42.666666 42.666666v512a42.666667 42.666667 0 0 1-42.666666 42.666667H85.333333a42.666667 42.666667 0 0 1-42.666666-42.666667V341.333333a42.666667 42.666667 0 0 1 42.666666-42.666666z" fill="#FFD129" p-id="8222"></path><path d="M500.650667 446.997333a21.333333 21.333333 0 0 1 22.698666 0l2.218667 1.621334 144.554667 119.232 1.365333 1.344a10.666667 10.666667 0 0 1-6.272 17.386666l-1.898667 0.170667-86.122666-0.021333 8.213333 148.16v2.496a21.333333 21.333333 0 0 1-17.642667 19.712l-2.474666 0.277333-105.386667 0.042667-2.517333-0.149334a21.333333 21.333333 0 0 1-18.688-18.709333l-0.149334-3.072 8.256-148.757333h-86.122666l-1.92-0.149334a10.666667 10.666667 0 0 1-6.229334-17.408l1.344-1.322666 144.554667-119.253334 2.218667-1.6z" fill="#FFFFFF" p-id="8223"></path></svg>