<?xml version="1.0" standalone="no"?><!DOCTYPE svg PUBLIC "-//W3C//DTD SVG 1.1//EN" "http://www.w3.org/Graphics/SVG/1.1/DTD/svg11.dtd"><svg t="1765523078524" class="icon" viewBox="0 0 1024 1024" version="1.1" xmlns="http://www.w3.org/2000/svg" p-id="6281" xmlns:xlink="http://www.w3.org/1999/xlink" width="256" height="256"><path d="M178.261333 272.753778h667.477334c80.924444 0 121.372444 40.106667 121.372444 120.348444v425.187556C967.111111 898.56 926.663111 938.666667 845.738667 938.666667H178.261333C97.336889 938.666667 56.888889 898.56 56.888889 818.289778V393.102222C56.888889 312.888889 97.336889 272.782222 178.261333 272.782222z" fill="#CCE0FA" p-id="6282"></path><path d="M180.963556 801.223111v-49.806222c0-14.990222 7.566222-22.471111 22.670222-22.471111H820.337778c15.075556 0 22.641778 7.480889 22.641778 22.471111v49.806222c0 14.990222-7.566222 22.471111-22.641778 22.471111H203.633778c-15.104 0-22.670222-7.480889-22.670222-22.471111z" fill="#FFFFFF" p-id="6283"></path><path d="M759.239111 332.458667L551.537778 129.820444a56.718222 56.718222 0 0 0-79.075556 0l-207.729778 202.638223c-18.602667 18.147556-5.632 49.550222 20.48 49.550222h44.657778c10.353778 0 18.773333 8.305778 18.773334 18.602667v176.213333c0 21.930667 17.92 39.708444 40.021333 39.708444h246.613333c22.101333 0 40.021333-17.777778 40.021334-39.708444v-176.213333c0-10.296889 8.419556-18.602667 18.773333-18.602667h44.686222c26.083556 0 39.054222-31.402667 20.48-49.550222z" fill="#2C7CE7" p-id="6284"></path></svg>